<svg id="Layer_1" data-name="Layer 1" xmlns="http://www.w3.org/2000/svg" viewBox="0 0 64 64"><title>gorilla</title><path d="M50.72,27.94a6.69,6.69,0,0,0,.6.59l1,.85a2.53,2.53,0,0,0,3.46-.12l.74-.74A8.61,8.61,0,0,0,59,22.43a1.05,1.05,0,0,0-.31-.74l-1.15-1.15A1.78,1.78,0,0,1,57,19.23l.17-5.37a6.69,6.69,0,0,0-.86-3.49,8.89,8.89,0,0,0-3.77-3.59A7.4,7.4,0,0,0,49.25,6a9,9,0,0,0-7.59,4.13,3.54,3.54,0,0,1-2.82,1.62l-2.6.11A23.16,23.16,0,0,0,29.92,13,5.81,5.81,0,0,0,26.17,17,13.17,13.17,0,0,1,24,21.3L19.9,26.8a2.07,2.07,0,0,1-2.31.72l-2.34-.78a7.55,7.55,0,0,0-4.51-.08h0a7.55,7.55,0,0,0-4.09,3l-.31.45A7.55,7.55,0,0,0,5,34.35v.33a12.5,12.5,0,0,0,3.43,8.6h0a.93.93,0,0,1,0,1.24,11,11,0,0,0-2.34,9.4l.57,2.65A1.8,1.8,0,0,0,8.46,58H14.4a.6.6,0,0,0,.6-.6A1.55,1.55,0,0,0,14.06,56l-.1,0a.46.46,0,0,1-.14-.74L17,52a6.86,6.86,0,0,0,2-4.85V43a1,1,0,0,1,2,0v.78A2.22,2.22,0,0,0,23.22,46,11.33,11.33,0,0,0,30,43.73l3.13-2.35A4.61,4.61,0,0,0,35,37.69a4.09,4.09,0,0,0-1.2-2.89l-.39-.39a1.41,1.41,0,0,1,2-2l.35.35a4.23,4.23,0,0,1,1.24,3v.68a5.9,5.9,0,0,0,3.17,5.23l3.94,2.06a2.37,2.37,0,0,1,1.27,2.1v1.31a5.58,5.58,0,0,0,2.35,4.55l2.16,1.53A1.16,1.16,0,0,1,50,55l-.61.61a1.41,1.41,0,0,0,1,2.41H52.5a6,6,0,0,0,4.26-1.77,6.46,6.46,0,0,0,1.84-5.37L58.13,47A32.21,32.21,0,0,0,51.32,30.9l-2-2.47a1.55,1.55,0,0,1-.34-1V26Z"/><path d="M27.53,52.44a11.68,11.68,0,0,0,2.34-5.5.54.54,0,0,0-.74-.57l-4.57,1.92a4.12,4.12,0,0,1-3.11,0,.77.77,0,0,0-1,.53l-.05.21a12.27,12.27,0,0,1-2.76,5.2,1.18,1.18,0,0,0-.11,1.44l.76,1.16A2.52,2.52,0,0,0,20.37,58H26.2a.8.8,0,0,0,.8-.8,1,1,0,0,0-.65-1L26,56.11a.85.85,0,0,1-.35-1.31Z"/><path d="M41.51,45.12l-4-2.37a2.25,2.25,0,0,0-2.45.11,3.77,3.77,0,0,0-1.47,3.94l.59,2.45A8.5,8.5,0,0,0,38,54.51a.58.58,0,0,1,0,1l-.29.15A1.24,1.24,0,0,0,38.24,58h3.24a2.65,2.65,0,0,0,2.29-1.31L45,54.61a2.6,2.6,0,0,0-.48-3.22l-.61-.57a2.78,2.78,0,0,1-.89-2V47.73A3,3,0,0,0,41.51,45.12Z"/></svg>